<svg id="Layer_1" data-name="Layer 1" xmlns="http://www.w3.org/2000/svg" viewBox="0 0 541.88 494.25"><defs><style>.cls-1{fill:#fe9500;}.cls-2{fill:#fea203;}.cls-3{fill:#fea204;}.cls-4{fill:#f78a05;}.cls-5{fill:#ea810e;}.cls-6{fill:#fd9f05;}.cls-7{fill:#f0870e;}.cls-8{fill:#ee830c;}.cls-9{fill:#fa9c08;}.cls-10{fill:#fda209;}.cls-11{fill:#fca209;}.cls-12{fill:#e68213;}.cls-13{fill:#e58214;}.cls-14{fill:#fb9b08;}.cls-15{fill:#fa9a09;}.cls-16{fill:#fea502;}</style></defs><title>1754296683968</title><path class="cls-1" d="M342.77,529.34c-3.82,3.07-8,5.14-13,5.15-32.36-.1-64.72,0-97.07,0-17.6-.45-37.43-15.93-42.09-32.83a3.77,3.77,0,0,0,.06-1.63c-3-8.74-2.36-17.79-2.37-26.78,0-69.35.07-138.7-.05-208-.28-.93-.06-2-.88-2.79-18.76,1.16-31.62-10.31-34.94-25.11-3.16-14.07,1-26.34,10.36-37.05,6.42-7.31,14.73-12.13,22.67-17.4q95.46-63.54,191.41-126.36c.9-.59,1.9-1,2.85-1.55,4.37-1.71,8.33-4.19,12.45-6.39A54.51,54.51,0,0,1,417.94,42a153.88,153.88,0,0,1,19.44.71c9.24,1.35,17.2,5.78,24.83,10.73q64.77,42,129.41,84.27a7.66,7.66,0,0,1,1.15,1.13c3.3,4,7.64,6.35,12.34,8.19a1.4,1.4,0,0,1,.73.33c1.36,3.26,4.5,3.8,7.33,4.8,20.62,13.43,41.63,26.29,61.43,40.91,8.33,6.15,14.68,14.2,16.91,24.77-.45,2.35.8,4.5.7,6.86-.21,5.14.56,10.37-2.08,15.19a3.56,3.56,0,0,0-.15,2.8l-.49,1.48c-2.06.61-3.77,1.5-3.85,4.07a3.2,3.2,0,0,1-2.27,3.12c-3.34.71-4.43,3.46-6,5.83-6.75,4.33-14.29,5.3-22.08,5.15-.8.77-.6,1.84-.88,2.77-.12,44.51,0,89,0,133.53,0,23.28-.14,46.56,0,69.83a226.2,226.2,0,0,1-1.6,29.79c-4.59,17.09-16.29,27.4-32.22,33.55a31.44,31.44,0,0,1-11.47,2.5c-27,.2-54,0-81,.09-5.58,0-11.17,0-16.75-.09-10.52-.66-19.5-9.43-20.75-20.25,0-.27.07-.53.11-.79q.17-69.75,0-139.49a3.34,3.34,0,0,0-.62-1.32c-4-16.36-14.24-24.41-31.12-24.43-24.52,0-49.05.55-73.55-.2-16.48-.51-30.27,8.13-32.85,24.63-.27.23-.56.43-.83.64q.3,59.13,0,118.2c0,7,.35,14.1-.7,21.19-.85,5.81-2.38,10.85-6.81,14.81A5.84,5.84,0,0,0,342.77,529.34Z" transform="translate(-151.33 -41.04)"/><path class="cls-2" d="M188.25,264c1.48,1.5.79,3.38.79,5.08q.06,106.15,0,212.31a55.62,55.62,0,0,0,2,16.56c.41,1.32,1.06,2.62-.45,3.68-2-3.64-2.15-7.72-2.78-11.68.16-27.12.05-54.24.06-81.37q0-70.06,0-140.14C187.87,267,187.49,265.41,188.25,264Z" transform="translate(-151.33 -41.04)"/><path class="cls-3" d="M652.8,498.3c-2.33-3-.21-6.15.14-9,1.09-8.75.27-17.47.55-26.2.15-4.46,0-8.93,0-13.4q0-90.31,0-180.64c0-1.7-.69-3.58.79-5.08.76,1.42.38,2.95.38,4.43q0,107.55,0,215.09c0,1.49.26,3-.32,4.47l.12.22-.16.19c-.82,1.31-.46,2.69-.24,4.07A12,12,0,0,1,652.8,498.3Z" transform="translate(-151.33 -41.04)"/><path class="cls-4" d="M188.25,264q0,110.36,0,220.71c0,1.75.45,3.56-.45,5.24-.81-8.19-.37-16.4-.37-24.61q-.06-100,0-200.08c0-1-.06-1.92-.09-2.87A1.57,1.57,0,0,1,188.25,264Z" transform="translate(-151.33 -41.04)"/><path class="cls-5" d="M654.42,488q0-108.71-.07-217.42V264a1.58,1.58,0,0,1,.93-1.61q-.06,58.08-.1,116.15,0,51.11-.07,102.2C655.11,483.15,655.62,485.66,654.42,488Z" transform="translate(-151.33 -41.04)"/><path class="cls-6" d="M342.77,529.34c-1.09-1.8.64-2.42,1.48-3.3,3.09-3.23,5.18-6.69,5.26-11.5.11-6.11,2.63-12.19.16-18.34,3-14.57,1-29.3,1.24-43.94.38-25.78.11-51.57.11-77.35,0-1,0-1.92,0-2.87a.34.34,0,0,1,.22-.27c.58-.08.49.41.59.74.68,1.15.38,2.41.38,3.62q0,67.11,0,134.23c0,1.22.29,2.47-.35,3.63A20,20,0,0,1,342.77,529.34Z" transform="translate(-151.33 -41.04)"/><path class="cls-7" d="M351.87,514l0-141.48h.71q0,68.38.06,136.78C352.61,510.85,353.12,512.58,351.87,514Z" transform="translate(-151.33 -41.04)"/><path class="cls-8" d="M490.07,372.5h.69c.7,1.13.39,2.4.39,3.6q0,67,0,134.06c0,1.21.26,2.46-.32,3.63l-.24.29c-1-1-.61-2.33-.61-3.52q0-68.42,0-136.84C490,373.32,490,372.91,490.07,372.5Z" transform="translate(-151.33 -41.04)"/><path class="cls-9" d="M437.38,42.75c-1,1.38-2.49,1-3.78.83-10.21-1.33-20.34-1.35-30.29,1.69-3.45,1.06-6.86,2.24-10.26,3.45-1.3.45-2.89,1.21-3.12,2.44-.48,2.55-2.11,2.49-3.94,2.37a4.75,4.75,0,0,0-4.06,1.52c-.73.81-1.59,1.14-2.26-.14,10.1-7.5,21.24-12.41,33.88-13.55a68.49,68.49,0,0,0,13.88,0C430.89,40.78,434.07,42.19,437.38,42.75Z" transform="translate(-151.33 -41.04)"/><path class="cls-10" d="M511.34,534.35c1.13-1.15,2.58-.71,3.89-.71q45,0,90,0c1.32,0,2.77-.44,3.9.71l-1.37.17a6.78,6.78,0,0,1-3.22.31H515.27c-1.08,0-2.2.24-3.21-.36l-.38,0Z" transform="translate(-151.33 -41.04)"/><path class="cls-11" d="M232.65,534.45c1.2-1.36,2.81-.8,4.24-.8q44.3-.06,88.58,0c1.45,0,3-.5,4.25.85h0a6.2,6.2,0,0,1-3.22.34H236.33a7.53,7.53,0,0,1-3.23-.31l-.25.09Z" transform="translate(-151.33 -41.04)"/><path class="cls-12" d="M233.1,534.53l96.62,0c-1,1.11-2.28.74-3.45.74q-44.4,0-88.82,0C236,535.2,234.42,535.52,233.1,534.53Z" transform="translate(-151.33 -41.04)"/><path class="cls-13" d="M512.06,534.47l95.68,0c-1.48,1-3.16.72-4.78.72q-43.07,0-86.14,0C515.21,535.24,513.52,535.53,512.06,534.47Z" transform="translate(-151.33 -41.04)"/><path class="cls-14" d="M677.36,257.23c.51-3,.89-6,4.94-6.29a2.53,2.53,0,0,0,2.45-3.1c-.45-3.9,1.91-4.06,4.74-3.63A27.57,27.57,0,0,1,677.36,257.23Z" transform="translate(-151.33 -41.04)"/><path class="cls-14" d="M690,242.73a2.69,2.69,0,0,1-.68-3.94c3.69-5.77,1.72-12,1.68-18.08,0-1-.7-2.06.53-2.83C694.07,226.35,693.86,234.66,690,242.73Z" transform="translate(-151.33 -41.04)"/><path class="cls-15" d="M605.11,147.07c-2.75,2.3-4.48-1.18-6.16-1.88-2.29-.94-6.09-2.36-6.18-6.31A82.55,82.55,0,0,1,605.11,147.07Z" transform="translate(-151.33 -41.04)"/><path class="cls-15" d="M613.17,152.2c-3.38-.16-7.14.25-7.33-4.8Z" transform="translate(-151.33 -41.04)"/><path class="cls-1" d="M427.43,41.34a28.84,28.84,0,0,1-13.88,0A78.47,78.47,0,0,1,427.43,41.34Z" transform="translate(-151.33 -41.04)"/><path class="cls-1" d="M654.14,492.46c-.89-1.41-1-2.79.24-4.07Z" transform="translate(-151.33 -41.04)"/><path class="cls-16" d="M490.83,513.8q0-70.65-.07-141.29c1.75.33.77,1.69.77,2.48q.09,67.68,0,135.36C491.57,511.53,492,512.85,490.83,513.8Z" transform="translate(-151.33 -41.04)"/></svg>